# xmcd
#
# Track frame offsets:
#	150
#	13751
#	26745
#	42041
#	59776
#	76280
#	92563
#	107157
#	118917
#	133871
#	148575
#	165202
#	178555
#	193220
#	209131
#	223175
#	237347
#	251714
#	267156
#
# Disc length: 3731 seconds
#
# Revision: 1
# Processed by: cddbd v1.5.2PL0 Copyright (c) Steve Scherf et al.
# Submitted via: audiograbber 1.82.02
#
DISCID=210e9113
DTITLE=Various Artist - Country Radio - September 2017
DYEAR=2017
DGENRE=Country
TTITLE0=Toby Keith - Wacky Tobaccy
TTITLE1=Dave McElroy - Without You
TTITLE2=Brett Young - Like I Loved You
TTITLE3=Jeff Lewis and Norm Cady - Land Of Dreams
TTITLE4=Tyson Lucas - Lessons Learned
TTITLE5=Joe Nichols - Never Gets Old
TTITLE6=Candy Fernaux - Gone Fishin'
TTITLE7=David Frizzell (Ft. Shelly West and Marty Haggard) - Made In America
TTITLE8=Domingo and Esteban Hiracheta - Free To Believe
TTITLE9=Brian Milson - I'd Have To Kiss Ya
TTITLE10=Band Steele - Tan Lines (PO Clean Edit)
TTITLE11=Chris Stapleton - Broken Halos
TTITLE12=Darius Rucker - For The First Time
TTITLE13=Dan and Shay - Road Trippin'
TTITLE14=Jessica Lynn - Crazy Idea
TTITLE15=Michael Ray - Get To You (Clean Edit)
TTITLE16=Brandon Lay - Speakers, Bleachers and Preachers
TTITLE17=Dierks Bentley - What The Hell Did I Say
TTITLE18=Colt Ford (Ft. Charles and Josh Kelley) - Young Americans
EXTD=
EXTT0=
EXTT1=
EXTT2=
EXTT3=
EXTT4=
EXTT5=
EXTT6=
EXTT7=
EXTT8=
EXTT9=
EXTT10=
EXTT11=
EXTT12=
EXTT13=
EXTT14=
EXTT15=
EXTT16=
EXTT17=
EXTT18=
PLAYORDER=
